# xmcd
#
# Track frame offsets: 
#        150
#        19065
#        37722
#        55370
#        68665
#        88132
#        113012
#        133445
#        152207
#        169132
#        192160
#        212340
#
# Disc length: 2985 seconds
#
# Revision: 1
# Processed by: cddbd v1.5.2PL0 Copyright (c) Steve Scherf et al.
# Submitted via: ExactAudioCopy v0.99pb4
#
DISCID=9f0ba70c
DTITLE=The Bible - The Bible
DYEAR=1989
DGENRE=Country
TTITLE0=Graceland
TTITLE1=Ctystal Palace
TTITLE2=Honey Be Good
TTITLE3=Skeleton Crew
TTITLE4=Red Hollywood
TTITLE5=Abraham, Martin and John
TTITLE6=Skywriting
TTITLE7=Glory Bound
TTITLE8=Up In Smoke
TTITLE9=Blue Shoes Stepping
TTITLE10=Cigarette Girls
TTITLE11=The Golden Mile
EXTD=
EXTT0=
EXTT1=
EXTT2=
EXTT3=
EXTT4=
EXTT5=
EXTT6=
EXTT7=
EXTT8=
EXTT9=
EXTT10=
EXTT11=
PLAYORDER=
